<svg id="visual" viewBox="0 0 960 540" width="960" height="540" xmlns="http://www.w3.org/2000/svg" xmlns:xlink="http://www.w3.org/1999/xlink" version="1.1"><path d="M0 325L20 329.5C40 334 80 343 120 341.8C160 340.7 200 329.3 240 326.8C280 324.3 320 330.7 360 336.7C400 342.7 440 348.3 480 355.3C520 362.3 560 370.7 600 374.3C640 378 680 377 720 377.8C760 378.7 800 381.3 840 371.7C880 362 920 340 940 329L960 318L960 541L940 541C920 541 880 541 840 541C800 541 760 541 720 541C680 541 640 541 600 541C560 541 520 541 480 541C440 541 400 541 360 541C320 541 280 541 240 541C200 541 160 541 120 541C80 541 40 541 20 541L0 541Z" fill="#0042a5"></path><path d="M0 402L20 399.5C40 397 80 392 120 395.5C160 399 200 411 240 408.5C280 406 320 389 360 381.8C400 374.7 440 377.3 480 377.7C520 378 560 376 600 381C640 386 680 398 720 404.7C760 411.3 800 412.7 840 406.5C880 400.3 920 386.7 940 379.8L960 373L960 541L940 541C920 541 880 541 840 541C800 541 760 541 720 541C680 541 640 541 600 541C560 541 520 541 480 541C440 541 400 541 360 541C320 541 280 541 240 541C200 541 160 541 120 541C80 541 40 541 20 541L0 541Z" fill="#005bab"></path><path d="M0 430L20 434.2C40 438.3 80 446.7 120 452.3C160 458 200 461 240 456.8C280 452.7 320 441.3 360 441.5C400 441.7 440 453.3 480 459.8C520 466.3 560 467.7 600 465.2C640 462.7 680 456.3 720 452.8C760 449.3 800 448.7 840 444C880 439.3 920 430.7 940 426.3L960 422L960 541L940 541C920 541 880 541 840 541C800 541 760 541 720 541C680 541 640 541 600 541C560 541 520 541 480 541C440 541 400 541 360 541C320 541 280 541 240 541C200 541 160 541 120 541C80 541 40 541 20 541L0 541Z" fill="#0070ab"></path><path d="M0 504L20 505.2C40 506.3 80 508.7 120 502C160 495.3 200 479.7 240 476.3C280 473 320 482 360 487.7C400 493.3 440 495.7 480 490.7C520 485.7 560 473.3 600 467C640 460.7 680 460.3 720 463.2C760 466 800 472 840 474.5C880 477 920 476 940 475.5L960 475L960 541L940 541C920 541 880 541 840 541C800 541 760 541 720 541C680 541 640 541 600 541C560 541 520 541 480 541C440 541 400 541 360 541C320 541 280 541 240 541C200 541 160 541 120 541C80 541 40 541 20 541L0 541Z" fill="#1581a3"></path></svg>